<svg width="30" height="30" viewBox="0 0 30 30" fill="none" xmlns="http://www.w3.org/2000/svg">
<rect x="12.8571" y="8.57144" width="4.28571" height="4.28571" fill="#FF9500"/>
<rect x="17.1429" y="8.57144" width="4.28571" height="4.28571" fill="#FF9500"/>
<rect x="21.4286" y="4.28571" width="4.28571" height="4.28571" fill="black"/>
<rect x="8.57143" y="8.57144" width="4.28571" height="4.28571" fill="#FF9500"/>
<rect x="4.28572" y="4.28571" width="4.28571" height="4.28571" fill="black"/>
<rect x="8.57143" y="12.8571" width="4.28571" height="4.28571" fill="#FF9500"/>
<rect x="8.57143" y="17.1429" width="4.28571" height="4.28571" fill="#FF9500"/>
<rect x="4.28572" y="21.4286" width="4.28571" height="4.28571" fill="black"/>
<rect x="12.8571" y="17.1429" width="4.28571" height="4.28571" fill="#FF9500"/>
<rect x="17.1429" y="17.1429" width="4.28571" height="4.28571" fill="#FF9500"/>
<rect x="21.4286" y="21.4286" width="4.28571" height="4.28571" fill="black"/>
<rect x="8.57143" y="4.28571" width="4.28571" height="4.28571" fill="#FFBB00"/>
<rect x="12.8571" y="4.28571" width="4.28571" height="4.28571" fill="#FFBB00"/>
<rect x="17.1429" y="4.28571" width="4.28571" height="4.28571" fill="#FFBB00"/>
<rect x="8.57143" y="21.4286" width="4.28571" height="4.28571" fill="#AD4800"/>
<rect x="12.8571" y="21.4286" width="4.28571" height="4.28571" fill="#AD4800"/>
<rect x="17.1429" y="21.4286" width="4.28571" height="4.28571" fill="#AD4800"/>
<rect x="8.57143" width="4.28571" height="4.28571" fill="black"/>
<rect x="12.8571" width="4.28571" height="4.28571" fill="black"/>
<rect x="17.1429" width="4.28571" height="4.28571" fill="black"/>
<rect x="8.57143" y="25.7143" width="4.28571" height="4.28571" fill="black"/>
<rect x="12.8571" y="25.7143" width="4.28571" height="4.28571" fill="black"/>
<rect x="17.1429" y="25.7143" width="4.28571" height="4.28571" fill="black"/>
<rect x="17.1429" y="12.8571" width="4.28571" height="4.28571" fill="#FF9500"/>
<rect x="4.28572" y="8.57144" width="4.28571" height="4.28571" fill="#FFBB00"/>
<rect x="4.28572" y="17.1429" width="4.28571" height="4.28571" fill="#FFBB00"/>
<rect x="4.28572" y="12.8571" width="4.28571" height="4.28571" fill="#FFBB00"/>
<rect x="25.7143" y="8.57144" width="4.28571" height="4.28571" fill="black"/>
<rect x="25.7143" y="17.1429" width="4.28571" height="4.28571" fill="black"/>
<rect x="25.7143" y="12.8571" width="4.28571" height="4.28571" fill="black"/>
<rect y="8.57144" width="4.28571" height="4.28571" fill="black"/>
<rect y="17.1429" width="4.28571" height="4.28571" fill="black"/>
<rect y="12.8571" width="4.28571" height="4.28571" fill="black"/>
<rect x="21.4286" y="8.57144" width="4.28571" height="4.28571" fill="#AD4800"/>
<rect x="21.4286" y="17.1429" width="4.28571" height="4.28571" fill="#AD4800"/>
<rect x="21.4286" y="12.8571" width="4.28571" height="4.28571" fill="#AD4800"/>
<rect x="12.8571" y="12.8571" width="4.28571" height="4.28571" fill="#FF9500"/>
</svg>
